<?xml version="1.0" encoding="UTF-8" standalone="no"?>
<svg width="426px" height="120px" viewBox="0 0 426 120" version="1.1" xmlns="http://www.w3.org/2000/svg" xmlns:xlink="http://www.w3.org/1999/xlink" xmlns:sketch="http://www.bohemiancoding.com/sketch/ns">
    <!-- Generator: Sketch 3.2.2 (9983) - http://www.bohemiancoding.com/sketch -->
    <title>HoodTag</title>
    <desc>Created with Sketch.</desc>
    <defs></defs>
    <g id="Page-1" stroke="none" stroke-width="1" fill="none" fill-rule="evenodd" sketch:type="MSPage">
        <g id="HoodTag" sketch:type="MSArtboardGroup" fill="#A7DBD8">
            <path d="M59.609375,54.4316406 C59.609375,50.0429688 61.6738281,47.8007812 64.7910156,47.8007812 C67.8808594,47.8007812 69.5214844,50.0703125 69.5214844,52.1210938 L71.5449219,52.1210938 C71.5449219,49.2089844 69.3164062,45.9414062 64.7910156,45.9414062 C60.3886719,45.9414062 57.5859375,48.9765625 57.5859375,54.4179688 L57.5859375,57.0292969 C57.5859375,62.4707031 60.3203125,65.3964844 64.7773438,65.3964844 C69.4804688,65.3964844 71.5585938,62.1152344 71.5585938,59.53125 L69.5351562,59.53125 C69.5351562,61.6640625 67.9082031,63.5371094 64.859375,63.5371094 C61.6328125,63.5371094 59.609375,61.4453125 59.609375,57.015625 L59.609375,54.4316406 Z M75.2226562,65 L77.21875,65 L77.21875,55.9765625 C77.21875,53.8847656 78.1484375,52.3398438 80.6777344,52.3398438 C81.1152344,52.3398438 81.5664062,52.3535156 81.7851562,52.3945312 L81.7851562,50.5214844 C81.5117188,50.4941406 81.2109375,50.4667969 80.9101562,50.4667969 C78.4082031,50.4667969 77.6972656,51.5605469 77.2734375,52.4628906 L77.21875,52.4628906 L77.21875,50.6855469 L75.2226562,50.6855469 L75.2226562,65 Z M89.6328125,65.2324219 C93.2695312,65.2324219 94.7324219,62.9765625 95.046875,61.1992188 L92.9277344,61.1992188 C92.6679688,62.265625 91.7792969,63.4414062 89.6191406,63.4414062 C86.8574219,63.4414062 85.6816406,61.2128906 85.6816406,58.7382812 L85.6816406,58.3417969 L95.2519531,58.3417969 L95.2519531,57.2070312 C95.2519531,53.2285156 93.3515625,50.453125 89.4550781,50.453125 C85.5585938,50.453125 83.6582031,53.3242188 83.6582031,57.234375 L83.6582031,58.6015625 C83.6582031,62.4570312 85.5996094,65.2324219 89.6328125,65.2324219 L89.6328125,65.2324219 Z M85.6816406,56.6054688 L85.6816406,56.5644531 C85.6816406,54.0351562 87.1035156,52.2167969 89.4550781,52.2167969 C91.8203125,52.2167969 93.2285156,54.0214844 93.2285156,56.5644531 L93.2285156,56.6054688 L85.6816406,56.6054688 Z M106.873047,63.0175781 L106.927734,63.0175781 L106.927734,65 L108.882812,65 L108.882812,54.9785156 C108.882812,51.8203125 106.900391,50.453125 103.769531,50.453125 C100.337891,50.453125 98.65625,52.1621094 98.5195312,54.6367188 L100.474609,54.6367188 C100.652344,53.2285156 101.554688,52.2578125 103.660156,52.2578125 C105.683594,52.2578125 106.845703,53.0644531 106.845703,55.0058594 L106.845703,56.7832031 L102.949219,56.7832031 C99.6816406,56.7832031 97.9589844,58.4375 97.9589844,60.9121094 C97.9589844,63.5371094 99.859375,65.2324219 102.634766,65.2324219 C104.822266,65.2324219 106.189453,64.1660156 106.873047,63.0175781 L106.873047,63.0175781 Z M103.113281,63.4824219 C101.5,63.4824219 100.037109,62.6484375 100.037109,60.8710938 C100.037109,59.4765625 100.925781,58.4648438 103.017578,58.4648438 L106.845703,58.4648438 L106.845703,60.1054688 C106.845703,62.0332031 105.246094,63.4824219 103.113281,63.4824219 L103.113281,63.4824219 Z M113.763672,50.6855469 L111.753906,50.6855469 L111.753906,52.3945312 L113.763672,52.3945312 L113.763672,61.0761719 C113.763672,63.8515625 114.40625,65.1230469 117.701172,65.1230469 C118.166016,65.1230469 118.658203,65.0683594 118.863281,65.0273438 L118.863281,63.3730469 C118.658203,63.4003906 118.425781,63.4003906 118.179688,63.4003906 C116.361328,63.4003906 115.773438,62.9628906 115.773438,61.1992188 L115.773438,52.3945312 L118.740234,52.3945312 L118.740234,50.6855469 L115.773438,50.6855469 L115.773438,47.0898438 L113.763672,47.0898438 L113.763672,50.6855469 Z M127.066406,65.2324219 C130.703125,65.2324219 132.166016,62.9765625 132.480469,61.1992188 L130.361328,61.1992188 C130.101562,62.265625 129.212891,63.4414062 127.052734,63.4414062 C124.291016,63.4414062 123.115234,61.2128906 123.115234,58.7382812 L123.115234,58.3417969 L132.685547,58.3417969 L132.685547,57.2070312 C132.685547,53.2285156 130.785156,50.453125 126.888672,50.453125 C122.992187,50.453125 121.091797,53.3242188 121.091797,57.234375 L121.091797,58.6015625 C121.091797,62.4570312 123.033203,65.2324219 127.066406,65.2324219 L127.066406,65.2324219 Z M123.115234,56.6054688 L123.115234,56.5644531 C123.115234,54.0351562 124.537109,52.2167969 126.888672,52.2167969 C129.253906,52.2167969 130.662109,54.0214844 130.662109,56.5644531 L130.662109,56.6054688 L123.115234,56.6054688 Z M149.939453,63.0175781 L149.994141,63.0175781 L149.994141,65 L151.949219,65 L151.949219,54.9785156 C151.949219,51.8203125 149.966797,50.453125 146.835938,50.453125 C143.404297,50.453125 141.722656,52.1621094 141.585938,54.6367188 L143.541016,54.6367188 C143.71875,53.2285156 144.621094,52.2578125 146.726562,52.2578125 C148.75,52.2578125 149.912109,53.0644531 149.912109,55.0058594 L149.912109,56.7832031 L146.015625,56.7832031 C142.748047,56.7832031 141.025391,58.4375 141.025391,60.9121094 C141.025391,63.5371094 142.925781,65.2324219 145.701172,65.2324219 C147.888672,65.2324219 149.255859,64.1660156 149.939453,63.0175781 L149.939453,63.0175781 Z M146.179688,63.4824219 C144.566406,63.4824219 143.103516,62.6484375 143.103516,60.8710938 C143.103516,59.4765625 143.992188,58.4648438 146.083984,58.4648438 L149.912109,58.4648438 L149.912109,60.1054688 C149.912109,62.0332031 148.3125,63.4824219 146.179688,63.4824219 L146.179688,63.4824219 Z M162.462891,50.6855469 L160.453125,50.6855469 L160.453125,52.3945312 L162.462891,52.3945312 L162.462891,61.0761719 C162.462891,63.8515625 163.105469,65.1230469 166.400391,65.1230469 C166.865234,65.1230469 167.357422,65.0683594 167.5625,65.0273438 L167.5625,63.3730469 C167.357422,63.4003906 167.125,63.4003906 166.878906,63.4003906 C165.060547,63.4003906 164.472656,62.9628906 164.472656,61.1992188 L164.472656,52.3945312 L167.439453,52.3945312 L167.439453,50.6855469 L164.472656,50.6855469 L164.472656,47.0898438 L162.462891,47.0898438 L162.462891,50.6855469 Z M178.732422,63.0175781 L178.787109,63.0175781 L178.787109,65 L180.742188,65 L180.742188,54.9785156 C180.742188,51.8203125 178.759766,50.453125 175.628906,50.453125 C172.197266,50.453125 170.515625,52.1621094 170.378906,54.6367188 L172.333984,54.6367188 C172.511719,53.2285156 173.414062,52.2578125 175.519531,52.2578125 C177.542969,52.2578125 178.705078,53.0644531 178.705078,55.0058594 L178.705078,56.7832031 L174.808594,56.7832031 C171.541016,56.7832031 169.818359,58.4375 169.818359,60.9121094 C169.818359,63.5371094 171.71875,65.2324219 174.494141,65.2324219 C176.681641,65.2324219 178.048828,64.1660156 178.732422,63.0175781 L178.732422,63.0175781 Z M174.972656,63.4824219 C173.359375,63.4824219 171.896484,62.6484375 171.896484,60.8710938 C171.896484,59.4765625 172.785156,58.4648438 174.876953,58.4648438 L178.705078,58.4648438 L178.705078,60.1054688 C178.705078,62.0332031 177.105469,63.4824219 174.972656,63.4824219 L174.972656,63.4824219 Z M189.984375,68.5273438 C187.701172,68.5273438 186.675781,67.3652344 186.539062,66.2167969 L184.433594,66.2167969 C184.556641,68.28125 186.210938,70.3320312 189.902344,70.3320312 C193.634766,70.3320312 196.027344,68.5136719 196.027344,64.7128906 L196.027344,50.6855469 L194.113281,50.6855469 L194.113281,52.7363281 L194.058594,52.7363281 C193.511719,51.6699219 192.349609,50.453125 189.833984,50.453125 C186.59375,50.453125 184.105469,52.9003906 184.105469,56.6328125 L184.105469,58.7382812 C184.105469,62.484375 186.621094,64.8359375 189.806641,64.8359375 C191.912109,64.8359375 193.443359,63.6875 193.976562,62.4980469 L194.03125,62.4980469 L194.03125,64.7949219 C194.03125,67.1464844 192.664062,68.5273438 189.984375,68.5273438 L189.984375,68.5273438 Z M190.175781,52.2167969 C192.595703,52.2167969 194.017578,54.3769531 194.017578,56.9882812 L194.017578,58.5878906 C194.017578,60.9394531 192.677734,63.0585938 190.203125,63.0585938 C187.824219,63.0585938 186.101562,61.3496094 186.101562,58.4375 L186.101562,57.0019531 C186.101562,54.0761719 187.714844,52.2167969 190.175781,52.2167969 L190.175781,52.2167969 Z M200.210938,65 L202.220703,65 L202.220703,45.3535156 L200.210938,45.3535156 L200.210938,65 Z M207.005859,65 L209.015625,65 L209.015625,50.6855469 L207.005859,50.6855469 L207.005859,65 Z M206.636719,47.171875 C206.636719,47.9648438 207.251953,48.5527344 207.990234,48.5527344 C208.783203,48.5527344 209.384766,47.9648438 209.384766,47.171875 C209.384766,46.3925781 208.783203,45.8046875 207.990234,45.8046875 C207.251953,45.8046875 206.636719,46.3925781 206.636719,47.171875 L206.636719,47.171875 Z M213.691406,65 L215.701172,65 L215.701172,56.4003906 C215.701172,53.8164062 217.027344,52.2988281 219.460938,52.2988281 C221.867188,52.2988281 223.083984,53.6523438 223.083984,56.2226562 L223.083984,65 L225.107422,65 L225.107422,55.4707031 C225.107422,52.2167969 222.783203,50.453125 219.939453,50.453125 C217.779297,50.453125 216.302734,51.4921875 215.755859,52.6269531 L215.701172,52.6269531 L215.701172,50.6855469 L213.691406,50.6855469 L213.691406,65 Z M234.623047,65.2324219 C238.259766,65.2324219 239.722656,62.9765625 240.037109,61.1992188 L237.917969,61.1992188 C237.658203,62.265625 236.769531,63.4414062 234.609375,63.4414062 C231.847656,63.4414062 230.671875,61.2128906 230.671875,58.7382812 L230.671875,58.3417969 L240.242188,58.3417969 L240.242188,57.2070312 C240.242188,53.2285156 238.341797,50.453125 234.445312,50.453125 C230.548828,50.453125 228.648438,53.3242188 228.648438,57.234375 L228.648438,58.6015625 C228.648438,62.4570312 230.589844,65.2324219 234.623047,65.2324219 L234.623047,65.2324219 Z M230.671875,56.6054688 L230.671875,56.5644531 C230.671875,54.0351562 232.09375,52.2167969 234.445312,52.2167969 C236.810547,52.2167969 238.21875,54.0214844 238.21875,56.5644531 L238.21875,56.6054688 L230.671875,56.6054688 Z M250.222656,65 L252.232422,65 L252.232422,52.3945312 L255.185547,52.3945312 L255.185547,50.6855469 L252.232422,50.6855469 L252.232422,49.3320312 C252.232422,47.5136719 253.011719,46.9804688 254.625,46.9804688 C254.994141,46.9804688 255.212891,47.0078125 255.431641,47.0351562 L255.431641,45.3398438 C255.199219,45.2988281 254.857422,45.2441406 254.392578,45.2441406 C251.5625,45.2441406 250.222656,46.5019531 250.222656,49.1953125 L250.222656,50.6855469 L248.158203,50.6855469 L248.158203,52.3945312 L250.222656,52.3945312 L250.222656,65 Z M263.251953,50.453125 C259.150391,50.453125 257.195312,53.3242188 257.195312,57.1933594 L257.195312,58.4785156 C257.195312,62.5117188 259.164062,65.2324219 263.251953,65.2324219 C267.339844,65.2324219 269.294922,62.484375 269.294922,58.4785156 L269.294922,57.1933594 C269.294922,53.2011719 267.339844,50.453125 263.251953,50.453125 L263.251953,50.453125 Z M263.251953,52.2167969 C266.21875,52.2167969 267.271484,54.5820312 267.271484,57.4257812 L267.271484,58.2597656 C267.271484,61.171875 266.21875,63.4414062 263.251953,63.4414062 C260.271484,63.4414062 259.191406,61.1582031 259.191406,58.2597656 L259.191406,57.4257812 C259.191406,54.5683594 260.285156,52.2167969 263.251953,52.2167969 L263.251953,52.2167969 Z M273.150391,65 L275.146484,65 L275.146484,55.9765625 C275.146484,53.8847656 276.076172,52.3398438 278.605469,52.3398438 C279.042969,52.3398438 279.494141,52.3535156 279.712891,52.3945312 L279.712891,50.5214844 C279.439453,50.4941406 279.138672,50.4667969 278.837891,50.4667969 C276.335938,50.4667969 275.625,51.5605469 275.201172,52.4628906 L275.146484,52.4628906 L275.146484,50.6855469 L273.150391,50.6855469 L273.150391,65 Z M298.894531,50.6855469 L296.761719,50.6855469 L292.6875,62.9082031 L292.591797,62.9082031 L288.503906,50.6855469 L286.275391,50.6855469 L291.607422,65.2324219 L291.347656,66.1074219 C290.923828,67.5839844 290.199219,68.4453125 288.517578,68.4453125 C288.189453,68.4453125 287.683594,68.4042969 287.464844,68.3632812 L287.464844,70.0722656 C287.820312,70.1269531 288.353516,70.1816406 288.832031,70.1816406 C291.621094,70.1816406 292.564453,68.2675781 293.330078,66.203125 L293.726562,65.1367188 L298.894531,50.6855469 Z M306.796875,50.453125 C302.695312,50.453125 300.740234,53.3242188 300.740234,57.1933594 L300.740234,58.4785156 C300.740234,62.5117188 302.708984,65.2324219 306.796875,65.2324219 C310.884766,65.2324219 312.839844,62.484375 312.839844,58.4785156 L312.839844,57.1933594 C312.839844,53.2011719 310.884766,50.453125 306.796875,50.453125 L306.796875,50.453125 Z M306.796875,52.2167969 C309.763672,52.2167969 310.816406,54.5820312 310.816406,57.4257812 L310.816406,58.2597656 C310.816406,61.171875 309.763672,63.4414062 306.796875,63.4414062 C303.816406,63.4414062 302.736328,61.1582031 302.736328,58.2597656 L302.736328,57.4257812 C302.736328,54.5683594 303.830078,52.2167969 306.796875,52.2167969 L306.796875,52.2167969 Z M327.728516,50.6855469 L325.705078,50.6855469 L325.705078,59.5585938 C325.705078,61.9101562 324.214844,63.3867188 321.958984,63.3867188 C319.949219,63.3867188 318.376953,62.4160156 318.376953,59.7089844 L318.376953,50.6855469 L316.353516,50.6855469 L316.353516,60.2832031 C316.353516,63.5507812 318.486328,65.2324219 321.439453,65.2324219 C323.763672,65.2324219 325.117188,64.2070312 325.636719,63.0449219 L325.71875,63.0449219 L325.71875,65 L327.728516,65 L327.728516,50.6855469 Z M332.28125,65 L334.277344,65 L334.277344,55.9765625 C334.277344,53.8847656 335.207031,52.3398438 337.736328,52.3398438 C338.173828,52.3398438 338.625,52.3535156 338.84375,52.3945312 L338.84375,50.5214844 C338.570312,50.4941406 338.269531,50.4667969 337.96875,50.4667969 C335.466797,50.4667969 334.755859,51.5605469 334.332031,52.4628906 L334.277344,52.4628906 L334.277344,50.6855469 L332.28125,50.6855469 L332.28125,65 Z M348.988281,46.3515625 L346.609375,53.5429688 L349.097656,53.5429688 L350.697266,46.3515625 L348.988281,46.3515625 Z M354.621094,65 L356.630859,65 L356.630859,56.4824219 C356.630859,53.8984375 358.025391,52.2988281 360.458984,52.2988281 C362.865234,52.2988281 364.068359,54.0351562 364.068359,56.4277344 L364.068359,65 L366.091797,65 L366.091797,56.03125 C366.091797,52.7636719 363.972656,50.453125 360.759766,50.453125 C358.394531,50.453125 357.136719,51.65625 356.699219,52.6269531 L356.630859,52.6269531 L356.630859,45.3535156 L354.621094,45.3535156 L354.621094,65 Z M375.703125,50.453125 C371.601562,50.453125 369.646484,53.3242188 369.646484,57.1933594 L369.646484,58.4785156 C369.646484,62.5117188 371.615234,65.2324219 375.703125,65.2324219 C379.791016,65.2324219 381.746094,62.484375 381.746094,58.4785156 L381.746094,57.1933594 C381.746094,53.2011719 379.791016,50.453125 375.703125,50.453125 L375.703125,50.453125 Z M375.703125,52.2167969 C378.669922,52.2167969 379.722656,54.5820312 379.722656,57.4257812 L379.722656,58.2597656 C379.722656,61.171875 378.669922,63.4414062 375.703125,63.4414062 C372.722656,63.4414062 371.642578,61.1582031 371.642578,58.2597656 L371.642578,57.4257812 C371.642578,54.5683594 372.736328,52.2167969 375.703125,52.2167969 L375.703125,52.2167969 Z M390.728516,50.453125 C386.626953,50.453125 384.671875,53.3242188 384.671875,57.1933594 L384.671875,58.4785156 C384.671875,62.5117188 386.640625,65.2324219 390.728516,65.2324219 C394.816406,65.2324219 396.771484,62.484375 396.771484,58.4785156 L396.771484,57.1933594 C396.771484,53.2011719 394.816406,50.453125 390.728516,50.453125 L390.728516,50.453125 Z M390.728516,52.2167969 C393.695312,52.2167969 394.748047,54.5820312 394.748047,57.4257812 L394.748047,58.2597656 C394.748047,61.171875 393.695312,63.4414062 390.728516,63.4414062 C387.748047,63.4414062 386.667969,61.1582031 386.667969,58.2597656 L386.667969,57.4257812 C386.667969,54.5683594 387.761719,52.2167969 390.728516,52.2167969 L390.728516,52.2167969 Z M405.330078,50.4394531 C401.679688,50.4394531 399.697266,53.1191406 399.697266,56.8515625 L399.697266,58.8203125 C399.697266,62.5800781 401.666016,65.21875 405.330078,65.21875 C407.818359,65.21875 409.349609,63.90625 409.664062,62.7714844 L409.71875,62.7714844 L409.71875,65 L411.619141,65 L411.619141,45.3535156 L409.609375,45.3535156 L409.609375,52.7363281 L409.554688,52.7363281 C409.103516,51.5605469 407.708984,50.4394531 405.330078,50.4394531 L405.330078,50.4394531 Z M405.589844,52.2304688 C408.132812,52.2304688 409.609375,54.1855469 409.609375,57.1386719 L409.609375,58.4648438 C409.609375,61.5410156 408.173828,63.4550781 405.658203,63.4550781 C403.005859,63.4550781 401.707031,61.4042969 401.707031,58.4238281 L401.707031,57.234375 C401.707031,54.28125 402.992188,52.2304688 405.589844,52.2304688 L405.589844,52.2304688 Z M415.666016,63.8652344 C415.666016,64.6582031 416.28125,65.2597656 417.019531,65.2597656 C417.826172,65.2597656 418.427734,64.6582031 418.427734,63.8652344 C418.427734,63.0859375 417.826172,62.4980469 417.019531,62.4980469 C416.28125,62.4980469 415.666016,63.0859375 415.666016,63.8652344 L415.666016,63.8652344 Z" id="Create-a-tagline-for" sketch:type="MSShapeGroup"></path>
        </g>
    </g>
</svg>