<?xml version="1.0" encoding="UTF-8" standalone="no"?>
<svg width="120px" height="120px" viewBox="0 0 120 120" version="1.1" xmlns="http://www.w3.org/2000/svg" xmlns:xlink="http://www.w3.org/1999/xlink" xmlns:sketch="http://www.bohemiancoding.com/sketch/ns">
    <!-- Generator: Sketch 3.2.2 (9983) - http://www.bohemiancoding.com/sketch -->
    <title>favicon</title>
    <desc>Created with Sketch.</desc>
    <defs></defs>
    <g id="Page-1" stroke="none" stroke-width="1" fill="none" fill-rule="evenodd" sketch:type="MSPage">
        <g id="favicon" sketch:type="MSArtboardGroup">
            <path d="M143.5,33.9375 L147.40625,15.1875 L112.40625,15.1875 L124.75,-45.28125 L106,-45.28125 L93.8125,15.1875 L46.15625,15.1875 L58.5,-45.28125 L39.4375,-45.28125 L27.25,15.1875 L-3.84375,15.1875 L-7.75,33.9375 L23.34375,33.9375 L12.5625,87.21875 L-20.40625,87.21875 L-24.3125,106.125 L8.34375,106.125 L-4.15625,168 L14.75,168 L27.40625,106.125 L74.90625,106.125 L62.40625,168 L81.15625,168 L93.65625,106.125 L126.78125,106.125 L130.53125,87.21875 L97.5625,87.21875 L108.65625,33.9375 L143.5,33.9375 Z M42.25,33.9375 L89.75,33.9375 L78.8125,87.21875 L31.15625,87.21875 L42.25,33.9375 Z" id="#" opacity="0.426597481" fill="#69D2E7" sketch:type="MSShapeGroup"></path>
            <path d="M33.8554688,34.046875 C19.2070312,34.046875 12.2246094,44.3007812 12.2246094,58.1191406 L12.2246094,62.7089844 C12.2246094,77.1132812 19.2558594,86.8300781 33.8554688,86.8300781 C48.4550781,86.8300781 55.4375,77.015625 55.4375,62.7089844 L55.4375,58.1191406 C55.4375,43.8613281 48.4550781,34.046875 33.8554688,34.046875 L33.8554688,34.046875 Z M33.8554688,40.3457031 C44.4511719,40.3457031 48.2109375,48.7929688 48.2109375,58.9492188 L48.2109375,61.9277344 C48.2109375,72.328125 44.4511719,80.4335938 33.8554688,80.4335938 C23.2109375,80.4335938 19.3535156,72.2792969 19.3535156,61.9277344 L19.3535156,58.9492188 C19.3535156,48.7441406 23.2597656,40.3457031 33.8554688,40.3457031 L33.8554688,40.3457031 Z M87.5175781,34.046875 C72.8691406,34.046875 65.8867188,44.3007812 65.8867188,58.1191406 L65.8867188,62.7089844 C65.8867188,77.1132812 72.9179688,86.8300781 87.5175781,86.8300781 C102.117188,86.8300781 109.099609,77.015625 109.099609,62.7089844 L109.099609,58.1191406 C109.099609,43.8613281 102.117188,34.046875 87.5175781,34.046875 L87.5175781,34.046875 Z M87.5175781,40.3457031 C98.1132813,40.3457031 101.873047,48.7929688 101.873047,58.9492188 L101.873047,61.9277344 C101.873047,72.328125 98.1132813,80.4335938 87.5175781,80.4335938 C76.8730469,80.4335938 73.015625,72.2792969 73.015625,61.9277344 L73.015625,58.9492188 C73.015625,48.7441406 76.921875,40.3457031 87.5175781,40.3457031 L87.5175781,40.3457031 Z" id="oo" fill="#F38630" sketch:type="MSShapeGroup"></path>
        </g>
    </g>
</svg>