<?xml version="1.0" encoding="UTF-8" standalone="no"?>
<svg width="241px" height="163px" viewBox="0 0 241 163" version="1.1" xmlns="http://www.w3.org/2000/svg" xmlns:xlink="http://www.w3.org/1999/xlink" xmlns:sketch="http://www.bohemiancoding.com/sketch/ns">
    <!-- Generator: Sketch 3.2.2 (9983) - http://www.bohemiancoding.com/sketch -->
    <title>HoodTag</title>
    <desc>Created with Sketch.</desc>
    <defs></defs>
    <g id="Page-1" stroke="none" stroke-width="1" fill="none" fill-rule="evenodd" sketch:type="MSPage">
        <g id="HoodTag" sketch:type="MSArtboardGroup">
            <g id="hoodtag-logo" sketch:type="MSLayerGroup" transform="translate(11.000000, 8.000000)">
                <path d="M121.03125,54.8320312 L123.716797,41.9414062 L99.6542969,41.9414062 L108.140625,0.369140625 L95.25,0.369140625 L86.8710938,41.9414062 L54.1074219,41.9414062 L62.59375,0.369140625 L49.4882812,0.369140625 L41.109375,41.9414062 L19.7324219,41.9414062 L17.046875,54.8320312 L38.4238281,54.8320312 L31.0117188,91.4628906 L8.34570312,91.4628906 L5.66015625,104.460938 L28.1113281,104.460938 L19.5175781,147 L32.515625,147 L41.2167969,104.460938 L73.8730469,104.460938 L65.2792969,147 L78.1699219,147 L86.7636719,104.460938 L109.537109,104.460938 L112.115234,91.4628906 L89.4492188,91.4628906 L97.0761719,54.8320312 L121.03125,54.8320312 Z M51.421875,54.8320312 L84.078125,54.8320312 L76.5585938,91.4628906 L43.7949219,91.4628906 L51.421875,54.8320312 Z" id="#" opacity="0.240729944" fill="#69D2E7" sketch:type="MSShapeGroup"></path>
                <path d="M0.03125,90 L4.625,90 L4.625,70.53125 C4.625,64.625 7.8125,60.96875 13.375,60.96875 C18.875,60.96875 21.625,64.9375 21.625,70.40625 L21.625,90 L26.25,90 L26.25,69.5 C26.25,62.03125 21.40625,56.75 14.0625,56.75 C8.65625,56.75 5.78125,59.5 4.78125,61.71875 L4.625,61.71875 L4.625,45.09375 L0.03125,45.09375 L0.03125,90 Z M48.21875,56.75 C38.84375,56.75 34.375,63.3125 34.375,72.15625 L34.375,75.09375 C34.375,84.3125 38.875,90.53125 48.21875,90.53125 C57.5625,90.53125 62.03125,84.25 62.03125,75.09375 L62.03125,72.15625 C62.03125,63.03125 57.5625,56.75 48.21875,56.75 L48.21875,56.75 Z M48.21875,60.78125 C55,60.78125 57.40625,66.1875 57.40625,72.6875 L57.40625,74.59375 C57.40625,81.25 55,86.4375 48.21875,86.4375 C41.40625,86.4375 38.9375,81.21875 38.9375,74.59375 L38.9375,72.6875 C38.9375,66.15625 41.4375,60.78125 48.21875,60.78125 L48.21875,60.78125 Z M82.5625,56.75 C73.1875,56.75 68.71875,63.3125 68.71875,72.15625 L68.71875,75.09375 C68.71875,84.3125 73.21875,90.53125 82.5625,90.53125 C91.90625,90.53125 96.375,84.25 96.375,75.09375 L96.375,72.15625 C96.375,63.03125 91.90625,56.75 82.5625,56.75 L82.5625,56.75 Z M82.5625,60.78125 C89.34375,60.78125 91.75,66.1875 91.75,72.6875 L91.75,74.59375 C91.75,81.25 89.34375,86.4375 82.5625,86.4375 C75.75,86.4375 73.28125,81.21875 73.28125,74.59375 L73.28125,72.6875 C73.28125,66.15625 75.78125,60.78125 82.5625,60.78125 L82.5625,60.78125 Z M115.9375,56.71875 C107.59375,56.71875 103.0625,62.84375 103.0625,71.375 L103.0625,75.875 C103.0625,84.46875 107.5625,90.5 115.9375,90.5 C121.625,90.5 125.125,87.5 125.84375,84.90625 L125.96875,84.90625 L125.96875,90 L130.3125,90 L130.3125,45.09375 L125.71875,45.09375 L125.71875,61.96875 L125.59375,61.96875 C124.5625,59.28125 121.375,56.71875 115.9375,56.71875 L115.9375,56.71875 Z M116.53125,60.8125 C122.34375,60.8125 125.71875,65.28125 125.71875,72.03125 L125.71875,75.0625 C125.71875,82.09375 122.4375,86.46875 116.6875,86.46875 C110.625,86.46875 107.65625,81.78125 107.65625,74.96875 L107.65625,72.25 C107.65625,65.5 110.59375,60.8125 116.53125,60.8125 L116.53125,60.8125 Z M141.75,57.28125 L137.15625,57.28125 L137.15625,61.1875 L141.75,61.1875 L141.75,81.03125 C141.75,87.375 143.21875,90.28125 150.75,90.28125 C151.8125,90.28125 152.9375,90.15625 153.40625,90.0625 L153.40625,86.28125 C152.9375,86.34375 152.40625,86.34375 151.84375,86.34375 C147.6875,86.34375 146.34375,85.34375 146.34375,81.3125 L146.34375,61.1875 L153.125,61.1875 L153.125,57.28125 L146.34375,57.28125 L146.34375,49.0625 L141.75,49.0625 L141.75,57.28125 Z M178.9375,85.46875 L179.0625,85.46875 L179.0625,90 L183.53125,90 L183.53125,67.09375 C183.53125,59.875 179,56.75 171.84375,56.75 C164,56.75 160.15625,60.65625 159.84375,66.3125 L164.3125,66.3125 C164.71875,63.09375 166.78125,60.875 171.59375,60.875 C176.21875,60.875 178.875,62.71875 178.875,67.15625 L178.875,71.21875 L169.96875,71.21875 C162.5,71.21875 158.5625,75 158.5625,80.65625 C158.5625,86.65625 162.90625,90.53125 169.25,90.53125 C174.25,90.53125 177.375,88.09375 178.9375,85.46875 L178.9375,85.46875 Z M170.34375,86.53125 C166.65625,86.53125 163.3125,84.625 163.3125,80.5625 C163.3125,77.375 165.34375,75.0625 170.125,75.0625 L178.875,75.0625 L178.875,78.8125 C178.875,83.21875 175.21875,86.53125 170.34375,86.53125 L170.34375,86.53125 Z M204.65625,98.0625 C199.4375,98.0625 197.09375,95.40625 196.78125,92.78125 L191.96875,92.78125 C192.25,97.5 196.03125,102.1875 204.46875,102.1875 C213,102.1875 218.46875,98.03125 218.46875,89.34375 L218.46875,57.28125 L214.09375,57.28125 L214.09375,61.96875 L213.96875,61.96875 C212.71875,59.53125 210.0625,56.75 204.3125,56.75 C196.90625,56.75 191.21875,62.34375 191.21875,70.875 L191.21875,75.6875 C191.21875,84.25 196.96875,89.625 204.25,89.625 C209.0625,89.625 212.5625,87 213.78125,84.28125 L213.90625,84.28125 L213.90625,89.53125 C213.90625,94.90625 210.78125,98.0625 204.65625,98.0625 L204.65625,98.0625 Z M205.09375,60.78125 C210.625,60.78125 213.875,65.71875 213.875,71.6875 L213.875,75.34375 C213.875,80.71875 210.8125,85.5625 205.15625,85.5625 C199.71875,85.5625 195.78125,81.65625 195.78125,75 L195.78125,71.71875 C195.78125,65.03125 199.46875,60.78125 205.09375,60.78125 L205.09375,60.78125 Z" id="hoodtag" fill="#F38630" sketch:type="MSShapeGroup"></path>
            </g>
        </g>
    </g>
</svg>